<?xml version="1.0" encoding="utf-8"?>
<!-- Generator: Adobe Illustrator 16.0.0, SVG Export Plug-In . SVG Version: 6.00 Build 0)  -->
<!DOCTYPE svg PUBLIC "-//W3C//DTD SVG 1.1//EN" "http://www.w3.org/Graphics/SVG/1.1/DTD/svg11.dtd">
<svg version="1.1" id="Layer_1" xmlns="http://www.w3.org/2000/svg" xmlns:xlink="http://www.w3.org/1999/xlink" x="0px" y="0px"
	 width="4px" height="7px" viewBox="0 0 4 7" enable-background="new 0 0 4 7" xml:space="preserve">
<g>
	<defs>
		<rect id="SVGID_1_" width="4" height="7"/>
	</defs>
	<clipPath id="SVGID_2_">
		<use xlink:href="#SVGID_1_"  overflow="visible"/>
	</clipPath>
	<g clip-path="url(#SVGID_2_)">
		<path fill="#A4A4A4" d="M3.932,3.339L0.729,0.07C0.682,0.024,0.63,0,0.57,0S0.458,0.024,0.413,0.07L0.069,0.421
			C0.022,0.468,0,0.521,0,0.583s0.022,0.115,0.069,0.161L2.77,3.5L0.069,6.257C0.022,6.303,0,6.357,0,6.418s0.022,0.115,0.069,0.161
			L0.413,6.93C0.458,6.977,0.511,7,0.57,7s0.112-0.023,0.158-0.07l3.203-3.268C3.977,3.615,4,3.561,4,3.5S3.977,3.386,3.932,3.339"
			/>
	</g>
</g>
</svg>
