<?xml version="1.0" encoding="utf-8"?>
<!-- Generator: Adobe Illustrator 16.0.0, SVG Export Plug-In . SVG Version: 6.00 Build 0)  -->
<!DOCTYPE svg PUBLIC "-//W3C//DTD SVG 1.1//EN" "http://www.w3.org/Graphics/SVG/1.1/DTD/svg11.dtd">
<svg version="1.1" id="Layer_1" xmlns="http://www.w3.org/2000/svg" xmlns:xlink="http://www.w3.org/1999/xlink" x="0px" y="0px"
	 width="8px" height="14px" viewBox="0 0 8 14" enable-background="new 0 0 8 14" xml:space="preserve">
<g>
	<defs>
		<rect id="SVGID_1_" width="8" height="14"/>
	</defs>
	<clipPath id="SVGID_2_">
		<use xlink:href="#SVGID_1_"  overflow="visible"/>
	</clipPath>
	<g clip-path="url(#SVGID_2_)">
		<path fill="#FFFFFF" d="M0.138,7.322l6.405,6.537C6.635,13.952,6.74,14,6.859,14s0.225-0.048,0.316-0.141l0.687-0.701
			C7.955,13.064,8,12.957,8,12.836c0-0.123-0.045-0.23-0.138-0.323L2.461,7l5.401-5.513C7.955,1.393,8,1.286,8,1.165
			c0-0.122-0.045-0.23-0.138-0.323L7.176,0.14C7.084,0.047,6.979,0,6.859,0S6.635,0.047,6.543,0.14L0.138,6.677
			C0.046,6.77,0,6.878,0,7C0,7.122,0.046,7.229,0.138,7.322"/>
	</g>
</g>
<g>
	<defs>
		<rect id="SVGID_3_" width="8" height="14"/>
	</defs>
	<clipPath id="SVGID_4_">
		<use xlink:href="#SVGID_3_"  overflow="visible"/>
	</clipPath>
	<g clip-path="url(#SVGID_4_)">
		<path fill="#585858" d="M0.138,7.322l6.405,6.537C6.635,13.952,6.74,14,6.859,14s0.225-0.048,0.316-0.141l0.687-0.701
			C7.955,13.064,8,12.957,8,12.836c0-0.123-0.045-0.23-0.138-0.323L2.461,7l5.401-5.513C7.955,1.393,8,1.286,8,1.165
			c0-0.122-0.045-0.23-0.138-0.323L7.176,0.14C7.084,0.047,6.979,0,6.859,0S6.635,0.047,6.543,0.14L0.138,6.677
			C0.046,6.77,0,6.878,0,7C0,7.122,0.046,7.229,0.138,7.322"/>
	</g>
</g>
</svg>
