<?xml version="1.0" encoding="utf-8"?>
<!-- Generator: Adobe Illustrator 16.0.0, SVG Export Plug-In . SVG Version: 6.00 Build 0)  -->
<!DOCTYPE svg PUBLIC "-//W3C//DTD SVG 1.1//EN" "http://www.w3.org/Graphics/SVG/1.1/DTD/svg11.dtd">
<svg version="1.1" id="Layer_1" xmlns="http://www.w3.org/2000/svg" xmlns:xlink="http://www.w3.org/1999/xlink" x="0px" y="0px"
	 width="18px" height="14px" viewBox="0 0 18 14" enable-background="new 0 0 18 14" xml:space="preserve">
<g>
	<defs>
		<rect id="SVGID_1_" x="-24" y="-59" width="375" height="2026"/>
	</defs>
	<clipPath id="SVGID_2_">
		<use xlink:href="#SVGID_1_"  overflow="visible"/>
	</clipPath>
	<g clip-path="url(#SVGID_2_)">
		<path fill="#585858" d="M2,0h14c0.092,0,0.184,0.006,0.273,0.017s0.178,0.028,0.265,0.05s0.171,0.05,0.253,0.083
			s0.16,0.072,0.236,0.115c0.076,0.043,0.148,0.091,0.217,0.145c0.07,0.053,0.135,0.11,0.195,0.172s0.117,0.128,0.17,0.198
			C17.66,0.85,17.708,0.923,17.75,1c-0.042,0.077-0.09,0.15-0.141,0.22c-0.053,0.07-0.109,0.136-0.17,0.198s-0.125,0.12-0.195,0.172
			c-0.068,0.053-0.141,0.102-0.217,0.145c-0.076,0.043-0.154,0.082-0.236,0.115s-0.166,0.061-0.253,0.083s-0.175,0.039-0.265,0.05
			S16.092,2,16,2H2C1.908,2,1.817,1.994,1.727,1.983c-0.09-0.011-0.179-0.028-0.265-0.05S1.291,1.883,1.209,1.85
			C1.127,1.816,1.048,1.778,0.973,1.734C0.896,1.691,0.824,1.643,0.755,1.59c-0.069-0.053-0.134-0.11-0.195-0.172
			C0.5,1.355,0.443,1.29,0.391,1.22C0.339,1.15,0.292,1.077,0.25,1c0.042-0.077,0.089-0.15,0.141-0.22
			C0.443,0.71,0.5,0.645,0.561,0.583c0.061-0.062,0.125-0.12,0.195-0.172c0.069-0.053,0.141-0.102,0.217-0.145
			C1.048,0.222,1.127,0.184,1.209,0.15C1.291,0.117,1.375,0.09,1.462,0.067s0.175-0.039,0.265-0.05C1.817,0.006,1.908,0,2,0z
			 M0.25,1C0.083,1.303,0,1.636,0,2V0C0,0.364,0.083,0.697,0.25,1z M17.75,1C17.916,0.697,18,0.364,18,0v2
			C18,1.636,17.916,1.303,17.75,1z M13,6H5C4.908,6,4.817,6.006,4.727,6.017c-0.09,0.011-0.179,0.028-0.265,0.05
			S4.291,6.117,4.209,6.15C4.127,6.184,4.048,6.222,3.973,6.266C3.896,6.309,3.824,6.357,3.755,6.41
			c-0.069,0.053-0.134,0.11-0.195,0.172C3.5,6.645,3.443,6.71,3.391,6.78C3.339,6.85,3.292,6.923,3.25,7C3.083,6.697,3,6.364,3,6v2
			c0-0.363,0.083-0.697,0.25-1c0.042,0.077,0.089,0.15,0.141,0.22C3.443,7.29,3.5,7.355,3.561,7.417
			c0.061,0.062,0.125,0.12,0.195,0.172c0.069,0.053,0.141,0.102,0.217,0.145C4.048,7.777,4.127,7.816,4.209,7.85
			C4.291,7.883,4.375,7.91,4.462,7.933s0.175,0.039,0.265,0.05C4.817,7.994,4.908,8,5,8h8c0.092,0,0.184-0.006,0.273-0.018
			c0.09-0.011,0.178-0.027,0.265-0.05s0.171-0.05,0.253-0.083s0.16-0.072,0.236-0.115s0.148-0.092,0.217-0.145
			c0.07-0.053,0.135-0.11,0.195-0.172s0.117-0.128,0.17-0.198C14.66,7.15,14.708,7.077,14.75,7C14.916,7.303,15,7.637,15,8V6
			c0,0.364-0.084,0.697-0.25,1c-0.042-0.077-0.09-0.15-0.141-0.22c-0.053-0.07-0.109-0.136-0.17-0.198s-0.125-0.12-0.195-0.172
			c-0.068-0.053-0.141-0.102-0.217-0.145c-0.076-0.043-0.154-0.082-0.236-0.115s-0.166-0.061-0.253-0.083s-0.175-0.039-0.265-0.05
			S13.092,6,13,6z M2,12h14c0.092,0,0.184,0.006,0.273,0.018c0.09,0.011,0.178,0.027,0.265,0.05s0.171,0.05,0.253,0.083
			s0.16,0.072,0.236,0.115s0.148,0.092,0.217,0.145c0.07,0.053,0.135,0.11,0.195,0.172c0.061,0.063,0.117,0.129,0.17,0.198
			c0.051,0.069,0.099,0.144,0.141,0.22c-0.042,0.076-0.09,0.15-0.141,0.22c-0.053,0.069-0.109,0.136-0.17,0.198
			c-0.061,0.062-0.125,0.119-0.195,0.172c-0.068,0.053-0.141,0.102-0.217,0.145s-0.154,0.082-0.236,0.115s-0.166,0.061-0.253,0.083
			s-0.175,0.039-0.265,0.05C16.184,13.994,16.092,14,16,14H2c-0.092,0-0.183-0.006-0.273-0.018c-0.09-0.011-0.179-0.027-0.265-0.05
			s-0.171-0.05-0.252-0.083c-0.082-0.033-0.161-0.072-0.237-0.115c-0.076-0.043-0.148-0.092-0.217-0.145
			c-0.069-0.053-0.134-0.11-0.195-0.172C0.5,13.355,0.443,13.289,0.391,13.22C0.339,13.15,0.292,13.076,0.25,13
			c0.042-0.076,0.089-0.15,0.141-0.22c0.052-0.069,0.108-0.136,0.169-0.198c0.061-0.062,0.125-0.119,0.195-0.172
			c0.069-0.053,0.141-0.102,0.217-0.145c0.076-0.043,0.155-0.082,0.237-0.115c0.082-0.033,0.166-0.061,0.252-0.083
			s0.175-0.039,0.265-0.05C1.817,12.006,1.908,12,2,12z M0.25,13C0.083,13.303,0,13.637,0,14v-2C0,12.363,0.083,12.697,0.25,13z
			 M17.75,13c0.166-0.303,0.25-0.637,0.25-1v2C18,13.637,17.916,13.303,17.75,13z"/>
	</g>
</g>
</svg>
