<?xml version="1.0" encoding="utf-8" ?>
<svg xmlns="http://www.w3.org/2000/svg" xmlns:xlink="http://www.w3.org/1999/xlink" width="18" height="14">
	<defs>
		<clipPath id="clip_0">
			<rect x="-24" y="-59" width="375" height="2026" clip-rule="evenodd"/>
		</clipPath>
	</defs>
	<g clip-path="url(#clip_0)">
		<path fill="rgb(255,255,255)" stroke="none" d="M2 0L16 0Q16.1381 0 16.2731 0.0168986Q16.4081 0.0337972 16.538 0.0673445Q16.6679 0.100892 16.7907 0.150592Q16.9135 0.200292 17.0275 0.26541Q17.1414 0.330528 17.2448 0.4101Q17.3482 0.489673 17.4396 0.582525Q17.5309 0.675376 17.6088 0.780132Q17.6867 0.884889 17.75 1Q17.6867 1.11512 17.6088 1.21987Q17.5309 1.32463 17.4396 1.41748Q17.3482 1.51033 17.2448 1.5899Q17.1414 1.66947 17.0275 1.73459Q16.9135 1.79971 16.7907 1.84941Q16.6679 1.89911 16.538 1.93266Q16.4081 1.9662 16.2731 1.9831Q16.1381 2 16 2L2 2Q1.86186 2 1.72686 1.9831Q1.59186 1.9662 1.46199 1.93266Q1.33212 1.89911 1.20929 1.84941Q1.08647 1.79971 0.972516 1.73459Q0.85856 1.66947 0.755155 1.5899Q0.65175 1.51033 0.560426 1.41748Q0.469101 1.32463 0.391206 1.21987Q0.313312 1.11511 0.25 1Q0.313312 0.884887 0.391206 0.780131Q0.469101 0.675374 0.560426 0.582523Q0.65175 0.489672 0.755155 0.4101Q0.85856 0.330527 0.972516 0.265409Q1.08647 0.200291 1.20929 0.150592Q1.33212 0.100892 1.46199 0.0673444Q1.59186 0.0337971 1.72686 0.0168986Q1.86186 0 2 0ZM0.25 1Q0 1.45455 0 2L0 0Q0 0.545455 0.25 1ZM17.75 1Q18 0.545456 18 0L18 2Q18 1.45454 17.75 1ZM13 6L5 6Q4.86186 6 4.72686 6.0169Q4.59186 6.0338 4.46199 6.06734Q4.33212 6.10089 4.20929 6.15059Q4.08647 6.20029 3.97252 6.26541Q3.85856 6.33053 3.75516 6.4101Q3.65175 6.48967 3.56043 6.58252Q3.4691 6.67537 3.39121 6.78013Q3.31331 6.88489 3.25 7Q3 6.54545 3 6L3 8Q3 7.45455 3.25 7Q3.31331 7.11511 3.39121 7.21987Q3.4691 7.32463 3.56043 7.41748Q3.65175 7.51033 3.75516 7.5899Q3.85856 7.66947 3.97252 7.73459Q4.08647 7.79971 4.20929 7.84941Q4.33212 7.89911 4.46199 7.93266Q4.59186 7.9662 4.72686 7.9831Q4.86186 8 5 8L13 8Q13.1381 8 13.2731 7.9831Q13.4081 7.9662 13.538 7.93266Q13.6679 7.89911 13.7907 7.84941Q13.9135 7.79971 14.0275 7.73459Q14.1414 7.66947 14.2448 7.5899Q14.3483 7.51033 14.4396 7.41748Q14.5309 7.32463 14.6088 7.21987Q14.6867 7.11512 14.75 7Q15 7.45454 15 8L15 6Q15 6.54546 14.75 7Q14.6867 6.88489 14.6088 6.78013Q14.5309 6.67538 14.4396 6.58252Q14.3483 6.48967 14.2448 6.4101Q14.1414 6.33053 14.0275 6.26541Q13.9135 6.20029 13.7907 6.15059Q13.6679 6.10089 13.538 6.06735Q13.4081 6.0338 13.2731 6.0169Q13.1381 6 13 6ZM2 12L16 12Q16.1381 12 16.2731 12.0169Q16.4081 12.0338 16.538 12.0673Q16.6679 12.1009 16.7907 12.1506Q16.9135 12.2003 17.0275 12.2654Q17.1414 12.3305 17.2448 12.4101Q17.3482 12.4897 17.4396 12.5825Q17.5309 12.6754 17.6088 12.7801Q17.6867 12.8849 17.75 13Q17.6867 13.1151 17.6088 13.2199Q17.5309 13.3246 17.4396 13.4175Q17.3482 13.5103 17.2448 13.5899Q17.1414 13.6695 17.0275 13.7346Q16.9135 13.7997 16.7907 13.8494Q16.6679 13.8991 16.538 13.9327Q16.4081 13.9662 16.2731 13.9831Q16.1381 14 16 14L2 14Q1.86186 14 1.72686 13.9831Q1.59186 13.9662 1.46199 13.9327Q1.33212 13.8991 1.2093 13.8494Q1.08647 13.7997 0.972517 13.7346Q0.858561 13.6695 0.755156 13.5899Q0.651752 13.5103 0.560427 13.4175Q0.469102 13.3246 0.391208 13.2199Q0.313313 13.1151 0.250001 13Q0.313313 12.8849 0.391208 12.7801Q0.469102 12.6754 0.560427 12.5825Q0.651752 12.4897 0.755157 12.4101Q0.858561 12.3305 0.972517 12.2654Q1.08647 12.2003 1.2093 12.1506Q1.33212 12.1009 1.46199 12.0673Q1.59186 12.0338 1.72686 12.0169Q1.86186 12 2 12ZM0.250001 13Q0 13.4545 0 14L0 12Q0 12.5455 0.250001 13ZM17.75 13Q18 12.5455 18 12L18 14Q18 13.4545 17.75 13Z" fill-rule="evenodd"/>
	</g>

</svg>