<?xml version="1.0" encoding="UTF-8" standalone="no"?>
<svg width="17px" height="13px" viewBox="0 0 17 13" version="1.1" xmlns="http://www.w3.org/2000/svg" xmlns:xlink="http://www.w3.org/1999/xlink">
    <!-- Generator: Sketch 50.2 (55047) - http://www.bohemiancoding.com/sketch -->
    <title>Page 1</title>
    <desc>Created with Sketch.</desc>
    <defs></defs>
    <g id="Homepages" stroke="none" stroke-width="1" fill="none" fill-rule="evenodd">
        <g id="Navigation-1" transform="translate(-24.000000, -579.000000)" fill="#A4A4A4" stroke="#979797" stroke-width="0.5">
            <g id="Page-1" transform="translate(25.000000, 580.000000)">
                <path d="M1.29310345,0.517647059 C0.865215517,0.517647059 0.517241379,0.865894118 0.517241379,1.29411765 L0.517241379,9.70588235 C0.517241379,10.1341059 0.865215517,10.4823529 1.29310345,10.4823529 L13.7068966,10.4823529 C14.1347845,10.4823529 14.4827586,10.1341059 14.4827586,9.70588235 L14.4827586,1.29411765 C14.4827586,0.865894118 14.1347845,0.517647059 13.7068966,0.517647059 L1.29310345,0.517647059 Z M13.7068966,11 L1.29310345,11 C0.580086207,11 0,10.4194588 0,9.70588235 L0,1.29411765 C0,0.580541176 0.580086207,0 1.29310345,0 L13.7068966,0 C14.4199138,0 15,0.580541176 15,1.29411765 L15,9.70588235 C15,10.4194588 14.4199138,11 13.7068966,11 Z" id="Fill-1"></path>
                <path d="M7.5,6 C7.34118451,6 7.18223743,5.94763011 7.045264,5.84289033 L0.131987385,1.53271985 C0.0060665669,1.45409366 -0.037354405,1.27971762 0.0350138815,1.14301365 C0.107645325,1.00645238 0.2684345,0.95979038 0.394355319,1.03784578 L7.34381608,5.37284558 C7.43736854,5.44719085 7.56249988,5.44719085 7.65605234,5.37284558 L7.68078914,5.35529382 L14.6056447,1.03784578 C14.7319602,0.959647683 14.8926178,1.00645238 14.9649861,1.14301365 C15.0373544,1.27971762 14.9939334,1.45423636 14.8680126,1.53271985 L7.954736,5.84289033 C7.81776257,5.94763011 7.65881549,6 7.5,6" id="Fill-3"></path>
            </g>
        </g>
    </g>
</svg>