<?xml version="1.0" encoding="utf-8"?>
<!-- Generator: Adobe Illustrator 22.1.0, SVG Export Plug-In . SVG Version: 6.00 Build 0)  -->
<svg version="1.1" id="Layer_1" xmlns="http://www.w3.org/2000/svg" xmlns:xlink="http://www.w3.org/1999/xlink" x="0px" y="0px"
	 viewBox="0 0 17 13" style="enable-background:new 0 0 17 13;" xml:space="preserve">
<style type="text/css">
	.st0{fill:#FFD549;stroke:#FFD549;stroke-width:0.5;}
</style>
<title>Page 1</title>
<desc>Created with Sketch.</desc>
<g id="Homepages">
	<g id="Navigation-1" transform="translate(-24.000000, -579.000000)">
		<g id="Page-1" transform="translate(25.000000, 580.000000)">
			<path id="Fill-1" class="st0" d="M1.3,0.5c-0.4,0-0.8,0.3-0.8,0.8v8.4c0,0.4,0.3,0.8,0.8,0.8h12.4c0.4,0,0.8-0.3,0.8-0.8V1.3
				c0-0.4-0.3-0.8-0.8-0.8H1.3z M13.7,11H1.3C0.6,11,0,10.4,0,9.7V1.3C0,0.6,0.6,0,1.3,0h12.4C14.4,0,15,0.6,15,1.3v8.4
				C15,10.4,14.4,11,13.7,11z"/>
			<path id="Fill-3" class="st0" d="M7.5,6C7.3,6,7.2,5.9,7,5.8L0.1,1.5C0,1.5,0,1.3,0,1.1C0.1,1,0.3,1,0.4,1l6.9,4.3
				c0.1,0.1,0.2,0.1,0.3,0l0,0L14.6,1C14.7,1,14.9,1,15,1.1c0.1,0.1,0,0.3-0.1,0.4L8,5.8C7.8,5.9,7.7,6,7.5,6"/>
		</g>
	</g>
</g>
</svg>
