<?xml version="1.0" encoding="utf-8"?>
<!-- Generator: Adobe Illustrator 16.0.0, SVG Export Plug-In . SVG Version: 6.00 Build 0)  -->
<!DOCTYPE svg PUBLIC "-//W3C//DTD SVG 1.1//EN" "http://www.w3.org/Graphics/SVG/1.1/DTD/svg11.dtd">
<svg version="1.1" id="Layer_1" xmlns="http://www.w3.org/2000/svg" xmlns:xlink="http://www.w3.org/1999/xlink" x="0px" y="0px"
	 width="13px" height="16px" viewBox="0 0 13 16" enable-background="new 0 0 13 16" xml:space="preserve">
<g>
	<defs>
		<rect id="SVGID_1_" width="13" height="16"/>
	</defs>
	<clipPath id="SVGID_2_">
		<use xlink:href="#SVGID_1_"  overflow="visible"/>
	</clipPath>
	<g opacity="0.5" clip-path="url(#SVGID_2_)">
		<path fill="#6A6A6C" d="M9.678,4.201L6.933,1.462v7.619c0,0.239-0.193,0.433-0.433,0.433S6.067,9.32,6.067,9.081V1.462
			L3.322,4.201c-0.165,0.165-0.433,0.165-0.598,0c-0.165-0.165-0.165-0.433,0-0.597l3.425-3.418C6.163,0.165,6.172,0.142,6.19,0.123
			C6.275,0.04,6.386-0.001,6.496,0.001C6.498,0.001,6.498,0,6.5,0s0.003,0.001,0.004,0.001C6.615,0,6.726,0.04,6.81,0.123
			c0.018,0.019,0.026,0.041,0.039,0.061l3.427,3.42c0.165,0.165,0.165,0.432,0,0.597C10.111,4.366,9.844,4.366,9.678,4.201
			 M10.834,16H2.167C0.97,16,0,15.032,0,13.838V7.784C0,6.59,0.97,5.622,2.167,5.622H3.9c0.24,0,0.434,0.194,0.434,0.433
			S4.14,6.486,3.9,6.486H2.167c-0.717,0-1.3,0.582-1.3,1.297v6.054c0,0.717,0.583,1.297,1.3,1.297h8.667
			c0.717,0,1.299-0.58,1.299-1.297V7.784c0-0.716-0.582-1.297-1.299-1.297H9.1c-0.239,0-0.434-0.193-0.434-0.432
			S8.86,5.622,9.1,5.622h1.734C12.03,5.622,13,6.59,13,7.784v6.054C13,15.032,12.03,16,10.834,16"/>
	</g>
</g>
</svg>
