<?xml version="1.0" encoding="utf-8"?>
<!-- Generator: Adobe Illustrator 16.0.0, SVG Export Plug-In . SVG Version: 6.00 Build 0)  -->
<!DOCTYPE svg PUBLIC "-//W3C//DTD SVG 1.1//EN" "http://www.w3.org/Graphics/SVG/1.1/DTD/svg11.dtd">
<svg version="1.1" id="Layer_1" xmlns="http://www.w3.org/2000/svg" xmlns:xlink="http://www.w3.org/1999/xlink" x="0px" y="0px"
	 width="16px" height="10px" viewBox="0 0 16 10" enable-background="new 0 0 16 10" xml:space="preserve">
<g>
	<defs>
		<rect id="SVGID_1_" y="0.021" width="16" height="9.979"/>
	</defs>
	<clipPath id="SVGID_2_">
		<use xlink:href="#SVGID_1_"  overflow="visible"/>
	</clipPath>
	<g opacity="0.5" clip-path="url(#SVGID_2_)">
		<path fill="#6A6A6C" d="M1.199,4.989C2.021,5.965,4.796,8.947,8,8.947c3.211,0,5.98-2.981,6.801-3.957
			C13.979,4.015,11.203,1.032,8,1.032C4.789,1.032,2.02,4.014,1.199,4.989 M7.898,9.979c-4.294,0-7.657-4.494-7.798-4.685
			c-0.133-0.182-0.133-0.428,0-0.609C0.241,4.494,3.604,0,7.898,0c4.295,0,7.656,4.494,7.798,4.685c0.134,0.182,0.134,0.428,0,0.609
			C15.555,5.486,12.193,9.979,7.898,9.979"/>
	</g>
</g>
<g>
	<defs>
		<rect id="SVGID_3_" x="-337" y="-335" width="375" height="812"/>
	</defs>
	<clipPath id="SVGID_4_">
		<use xlink:href="#SVGID_3_"  overflow="visible"/>
	</clipPath>
	<g opacity="0.5" clip-path="url(#SVGID_4_)">
		<path fill="#6A6A6C" d="M7.619,2.564c-1.12,0-2.032,0.92-2.032,2.051s0.912,2.051,2.032,2.051S9.65,5.746,9.65,4.615
			S8.739,2.564,7.619,2.564 M7.619,7.692c-1.68,0-3.048-1.38-3.048-3.077c0-1.696,1.368-3.077,3.048-3.077
			c1.681,0,3.048,1.38,3.048,3.077C10.667,6.313,9.3,7.692,7.619,7.692"/>
	</g>
</g>
</svg>
