<?xml version="1.0" encoding="utf-8"?>
<!-- Generator: Adobe Illustrator 16.0.0, SVG Export Plug-In . SVG Version: 6.00 Build 0)  -->
<!DOCTYPE svg PUBLIC "-//W3C//DTD SVG 1.1//EN" "http://www.w3.org/Graphics/SVG/1.1/DTD/svg11.dtd">
<svg version="1.1" id="Layer_1" xmlns="http://www.w3.org/2000/svg" xmlns:xlink="http://www.w3.org/1999/xlink" x="0px" y="0px"
	 width="17px" height="15px" viewBox="0 0 17 15" enable-background="new 0 0 17 15" xml:space="preserve">
<g>
	<defs>
		<rect id="SVGID_1_" x="-294" y="-711" width="375" height="2026"/>
	</defs>
	<clipPath id="SVGID_2_">
		<use xlink:href="#SVGID_1_"  overflow="visible"/>
	</clipPath>
	<g opacity="0.5" clip-path="url(#SVGID_2_)">
		<path fill="#6A6A6C" d="M8.215,14.749L8.5,15l0.285-0.251C15.258,9.438,17,7.572,17,4.521C17,2.045,15.008,0,12.52,0
			C10.456,0,9.282,1.184,8.5,2.082C7.718,1.184,6.544,0,4.481,0C2.027,0,0,2.01,0,4.521C0,7.572,1.743,9.438,8.215,14.749z
			 M0.925,4.521c0-1.974,1.6-3.588,3.556-3.588c1.778,0,2.739,1.077,3.485,1.938L8.5,3.481l0.533-0.61
			C9.78,2.01,10.74,0.933,12.52,0.933c1.955,0,3.556,1.615,3.556,3.588c0,2.62-1.636,4.342-7.575,9.258
			C2.561,8.863,0.925,7.141,0.925,4.521z"/>
	</g>
</g>
</svg>
