<?xml version="1.0" encoding="utf-8"?>
<!-- Generator: Adobe Illustrator 16.0.0, SVG Export Plug-In . SVG Version: 6.00 Build 0)  -->
<!DOCTYPE svg PUBLIC "-//W3C//DTD SVG 1.1//EN" "http://www.w3.org/Graphics/SVG/1.1/DTD/svg11.dtd">
<svg version="1.1" id="Layer_1" xmlns="http://www.w3.org/2000/svg" xmlns:xlink="http://www.w3.org/1999/xlink" x="0px" y="0px"
	 width="17px" height="14px" viewBox="0 0 17 14" enable-background="new 0 0 17 14" xml:space="preserve">
<title>Page 1</title>
<desc>Created with Sketch.</desc>
<g id="Homepages">
	<g id="Navigation-1" transform="translate(-24.000000, -522.000000)">
		<g id="Page-1" transform="translate(25.000000, 523.000000)">
			<path id="Fill-1" fill="none" stroke="#FFD457" d="M4.13,5.566h6.74V2.133c0-0.613-0.046-1.018-0.14-1.212
				c-0.07-0.147-0.223-0.274-0.449-0.38C9.975,0.398,9.65,0.327,9.309,0.327H8.795V0H15v0.327h-0.514
				c-0.342,0-0.668,0.068-0.975,0.204c-0.229,0.094-0.385,0.237-0.467,0.429c-0.082,0.191-0.123,0.583-0.123,1.172v7.743
				c0,0.607,0.049,1.009,0.141,1.204c0.07,0.146,0.219,0.272,0.438,0.38c0.313,0.143,0.645,0.213,0.982,0.213H15V12H8.795v-0.327
				h0.514c0.592,0,1.023-0.146,1.295-0.435c0.18-0.188,0.269-0.645,0.269-1.362V6.221H4.13v3.655c0,0.608,0.046,1.009,0.139,1.204
				c0.071,0.146,0.221,0.273,0.449,0.38c0.307,0.142,0.631,0.213,0.974,0.213h0.524V12H0v-0.327h0.514
				c0.599,0,1.034-0.146,1.305-0.435c0.171-0.188,0.257-0.645,0.257-1.362V2.133c0-0.613-0.046-1.018-0.139-1.212
				C1.865,0.773,1.719,0.646,1.498,0.54C1.184,0.398,0.856,0.327,0.514,0.327H0V0h6.216v0.327H5.692
				c-0.342,0-0.667,0.068-0.974,0.204C4.497,0.625,4.344,0.769,4.258,0.96C4.172,1.152,4.13,1.543,4.13,2.133V5.566z"/>
		</g>
	</g>
</g>
</svg>
