<?xml version="1.0" encoding="UTF-8" standalone="no"?>
<svg width="17px" height="18px" viewBox="0 0 17 18" version="1.1" xmlns="http://www.w3.org/2000/svg" xmlns:xlink="http://www.w3.org/1999/xlink">
    <!-- Generator: Sketch 50.2 (55047) - http://www.bohemiancoding.com/sketch -->
    <title>Page 1</title>
    <desc>Created with Sketch.</desc>
    <defs></defs>
    <g id="Homepages" stroke="none" stroke-width="1" fill="none" fill-rule="evenodd" stroke-linecap="round" stroke-linejoin="round">
        <g id="Navigation-1" transform="translate(-24.000000, -189.000000)" stroke="#A4A4A4">
            <path d="M39.733107,197.896455 L38.2797571,197.896455 C38.1379669,197.896455 38.0139004,198.02251 38.0139004,198.166573 L38.0139004,205.729882 C38.0139004,205.873945 37.8900112,206 37.7480438,206 L35.3376098,206 C35.1958196,206 35.0717532,205.873945 35.0717532,205.729882 L35.0717532,201.047833 C35.0717532,200.90377 34.9476867,200.777715 34.8058965,200.777715 L30.197714,200.777715 C30.0559238,200.777715 29.9318573,200.90377 29.9318573,201.047833 L29.9318573,205.729882 C29.9318573,205.873945 29.8077909,206 29.6660006,206 L27.2732905,206 C27.1315003,206 27.0074338,205.873945 27.0074338,205.729882 L27.0074338,198.166573 C27.0074338,198.02251 26.8833673,197.896455 26.7415771,197.896455 L25.2705035,197.896455 C25.0223706,197.896455 24.9160279,197.608329 25.0755419,197.42825 L32.3068437,190.081035 C32.4131863,189.972988 32.5904241,189.972988 32.6967668,190.081035 L39.9282458,197.42825 C40.0875826,197.608329 39.9635161,197.896455 39.733107,197.896455 Z" id="Page-1"></path>
        </g>
    </g>
</svg>