<?xml version="1.0" encoding="utf-8"?>
<!-- Generator: Adobe Illustrator 16.0.0, SVG Export Plug-In . SVG Version: 6.00 Build 0)  -->
<!DOCTYPE svg PUBLIC "-//W3C//DTD SVG 1.1//EN" "http://www.w3.org/Graphics/SVG/1.1/DTD/svg11.dtd">
<svg version="1.1" id="Layer_1" xmlns="http://www.w3.org/2000/svg" xmlns:xlink="http://www.w3.org/1999/xlink" x="0px" y="0px"
	 width="17px" height="18px" viewBox="0 0 17 18" enable-background="new 0 0 17 18" xml:space="preserve">
<title>Page 1</title>
<desc>Created with Sketch.</desc>
<g id="Homepages">
	<g id="Navigation-1" transform="translate(-24.000000, -189.000000)">
		<path id="Page-1" fill="none" stroke="#FFD457" stroke-linecap="round" stroke-linejoin="round" d="M39.732,197.896h-1.453
			c-0.141,0-0.266,0.126-0.266,0.27v7.564c0,0.144-0.123,0.27-0.266,0.27h-2.41c-0.143,0-0.266-0.126-0.266-0.27v-4.683
			c0-0.144-0.125-0.271-0.267-0.271h-4.608c-0.142,0-0.266,0.127-0.266,0.271v4.683c0,0.144-0.124,0.27-0.266,0.27h-2.393
			c-0.142,0-0.266-0.126-0.266-0.27v-7.564c0-0.144-0.124-0.27-0.266-0.27h-1.471c-0.248,0-0.354-0.288-0.195-0.468l7.231-7.347
			c0.106-0.108,0.284-0.108,0.39,0l7.231,7.347C40.088,197.608,39.963,197.896,39.732,197.896z"/>
	</g>
</g>
</svg>
