<?xml version="1.0" encoding="utf-8"?>
<!-- Generator: Adobe Illustrator 22.1.0, SVG Export Plug-In . SVG Version: 6.00 Build 0)  -->
<svg version="1.1" id="Layer_1" xmlns="http://www.w3.org/2000/svg" xmlns:xlink="http://www.w3.org/1999/xlink" x="0px" y="0px"
	 viewBox="0 0 15 15" style="enable-background:new 0 0 15 15;" xml:space="preserve">
<style type="text/css">
	.st0{clip-path:url(#SVGID_2_);}
	.st1{clip-path:url(#SVGID_4_);fill:#FFD457;}
</style>
<title>Page 1</title>
<desc>Created with Sketch.</desc>
<g>
	<defs>
		<path id="SVGID_1_" d="M3.1,14c-0.1,0-0.1,0-0.2,0c-0.1-0.1-0.1-0.2-0.1-0.2l0.8-4.6L0.2,5.9C0.1,5.8,0.1,5.7,0.1,5.6
			c0-0.1,0.1-0.2,0.2-0.2l4.8-0.7l2.1-4.2c0-0.1,0.1-0.1,0.2-0.1c0.1,0,0.2,0.1,0.2,0.1l2.1,4.2l4.8,0.7c0.1,0,0.2,0.1,0.2,0.2
			c0,0.1,0,0.2-0.1,0.3l-3.5,3.2l0.8,4.6c0,0.1,0,0.2-0.1,0.2c-0.1,0.1-0.2,0.1-0.3,0l-4.3-2.2l-4.3,2.2C3.2,13.9,3.2,14,3.1,14z
			 M1,5.9l3.2,3C4.2,8.9,4.2,9,4.2,9l-0.7,4.2l3.9-2c0.1,0,0.2,0,0.2,0l3.9,2L10.8,9c0-0.1,0-0.2,0.1-0.2l3.2-3L9.7,5.2
			c-0.1,0-0.2-0.1-0.2-0.1l-2-3.8l-2,3.8c0,0.1-0.1,0.1-0.2,0.1L1,5.9z"/>
	</defs>
	<use xlink:href="#SVGID_1_"  style="overflow:visible;fill-rule:evenodd;clip-rule:evenodd;fill:#FFD457;"/>
	<clipPath id="SVGID_2_">
		<use xlink:href="#SVGID_1_"  style="overflow:visible;"/>
	</clipPath>
	<g class="st0">
		<defs>
			<rect id="SVGID_3_" x="-174.1" y="-384.9" width="460.2" height="1054.2"/>
		</defs>
		<use xlink:href="#SVGID_3_"  style="overflow:visible;fill:#FFD457;"/>
		<clipPath id="SVGID_4_">
			<use xlink:href="#SVGID_3_"  style="overflow:visible;"/>
		</clipPath>
		<rect x="-6" y="-5.7" class="st1" width="27" height="25.8"/>
	</g>
</g>
</svg>
