<?xml version="1.0" encoding="utf-8"?>
<!-- Generator: Adobe Illustrator 16.0.0, SVG Export Plug-In . SVG Version: 6.00 Build 0)  -->
<!DOCTYPE svg PUBLIC "-//W3C//DTD SVG 1.1//EN" "http://www.w3.org/Graphics/SVG/1.1/DTD/svg11.dtd">
<svg version="1.1" id="Layer_1" xmlns="http://www.w3.org/2000/svg" xmlns:xlink="http://www.w3.org/1999/xlink" x="0px" y="0px"
	 width="612px" height="792px" viewBox="0 0 612 792" enable-background="new 0 0 612 792" xml:space="preserve">
<g>
	<g>
		<defs>
			<path id="SVGID_1_" d="M126.48,661.2c-4.08,0-4.08,0-8.16,0c-4.08-4.08-4.08-8.16-4.08-8.16l32.64-187.68L8.16,330.72
				c-4.08-4.08-4.08-8.16-4.08-12.24s4.08-8.16,8.16-8.16l195.84-28.56l85.68-171.36c0-4.08,4.08-4.08,8.16-4.08
				s8.16,4.08,8.16,4.08l85.68,171.36l195.84,28.56c4.08,0,8.16,4.08,8.16,8.16s0,8.16-4.08,12.24l-142.8,130.56l32.64,187.68
				c0,4.08,0,8.16-4.079,8.16c-4.08,4.08-8.16,4.08-12.24,0l-175.44-89.76l-175.44,89.76C130.56,657.12,130.56,661.2,126.48,661.2z
				 M40.8,330.72l130.56,122.4v4.08L142.8,628.56l159.12-81.6c4.08,0,8.16,0,8.16,0l159.12,81.6L440.64,457.2
				c0-4.08,0-8.16,4.08-8.16l130.561-122.4L395.76,302.16c-4.08,0-8.16-4.08-8.16-4.08L306,143.04l-81.6,155.04
				c0,4.08-4.08,4.08-8.16,4.08L40.8,330.72z"/>
		</defs>
		<use xlink:href="#SVGID_1_"  overflow="visible" fill="#A4A4A4"/>
		<clipPath id="SVGID_2_">
			<use xlink:href="#SVGID_1_"  overflow="visible"/>
		</clipPath>
		<g clip-path="url(#SVGID_2_)">
			<g>
				<defs>
					<rect id="SVGID_3_" x="-7103.281" y="-15613.921" width="18776.16" height="43011.359"/>
				</defs>
				<use xlink:href="#SVGID_3_"  overflow="visible" fill="#A4A4A4"/>
				<clipPath id="SVGID_4_">
					<use xlink:href="#SVGID_3_"  overflow="visible"/>
				</clipPath>
				<rect x="-244.8" y="-142.56" clip-path="url(#SVGID_4_)" fill="#A4A4A4" width="1101.6" height="1052.64"/>
			</g>
		</g>
	</g>
</g>
</svg>
