<?xml version="1.0" encoding="utf-8"?>
<!-- Generator: Adobe Illustrator 16.0.0, SVG Export Plug-In . SVG Version: 6.00 Build 0)  -->
<!DOCTYPE svg PUBLIC "-//W3C//DTD SVG 1.1//EN" "http://www.w3.org/Graphics/SVG/1.1/DTD/svg11.dtd">
<svg version="1.1" id="Layer_1" xmlns="http://www.w3.org/2000/svg" xmlns:xlink="http://www.w3.org/1999/xlink" x="0px" y="0px"
	 width="78px" height="37px" viewBox="0 0 78 37" enable-background="new 0 0 78 37" xml:space="preserve">
<g>
	<defs>
		<rect id="SVGID_1_" x="71.072" y="29.081" width="6.869" height="6.825"/>
	</defs>
	<clipPath id="SVGID_2_">
		<use xlink:href="#SVGID_1_"  overflow="visible"/>
	</clipPath>
	<g clip-path="url(#SVGID_2_)">
		<path fill="#FFD457" d="M71.072,32.493c0-1.427,0.999-3.412,3.436-3.412c1.936,0,3.435,1.241,3.435,3.227
			s-1.374,3.599-3.498,3.599C72.071,35.906,71.072,34.045,71.072,32.493"/>
	</g>
</g>
<g>
	<defs>
		<rect id="SVGID_3_" y="0.09" width="49.554" height="35.91"/>
	</defs>
	<clipPath id="SVGID_4_">
		<use xlink:href="#SVGID_3_"  overflow="visible"/>
	</clipPath>
	<g clip-path="url(#SVGID_4_)">
		<path fill="#FFD457" d="M23.378,6.432c-3.607,6.25-11.938,22.525-13.306,25.884c-0.311,0.699-0.559,1.352-0.559,1.771
			c0,0.373,0.186,0.84,0.808,1.072c0.746,0.187,1.679,0.187,2.362,0.187c0.374,0,0.685,0.047,0.685,0.28
			C13.368,35.906,12.995,36,12,36c-2.487,0-5.347-0.141-6.093-0.141C5.534,35.859,2.86,36,1.057,36C0.373,36,0,35.906,0,35.673
			s0.249-0.326,0.746-0.326c0.436,0,1.803,0,2.984-0.56c0.809-0.42,1.741-1.213,3.42-4.385c0.684-1.305,3.792-6.901,6.963-12.638
			c3.793-6.809,6.59-11.845,8.021-14.13c1.741-2.798,1.99-3.544,2.611-3.544c0.746,0,1.057,0.653,2.239,2.891l15.232,28.587
			c1.368,2.613,2.301,3.125,4.477,3.592c0.934,0.187,1.99,0.187,2.363,0.187s0.497,0.14,0.497,0.326c0,0.28-0.622,0.327-1.616,0.327
			c-2.984,0-6.528-0.141-7.275-0.141c-0.621,0-3.419,0.141-5.782,0.141c-1.12,0-1.679-0.094-1.679-0.327s0.187-0.326,0.622-0.326
			c0.684,0,1.803-0.046,2.362-0.233c0.684-0.232,0.809-0.605,0.809-0.932c0-0.607-0.746-2.053-1.679-3.871L23.378,6.432z"/>
	</g>
</g>
<g>
	<path fill="#FFD457" d="M41.865,6.358c-3.784,6.265-12.527,22.581-13.962,25.948c-0.327,0.701-0.587,1.355-0.587,1.775
		c0,0.375,0.196,0.842,0.848,1.076c0.783,0.188,1.762,0.188,2.479,0.188c0.392,0,0.718,0.046,0.718,0.279
		c0,0.281-0.392,0.375-1.436,0.375c-2.609,0-5.611-0.141-6.394-0.141c-0.392,0-3.197,0.141-5.089,0.141
		c-0.718,0-1.109-0.094-1.109-0.328c0-0.233,0.261-0.326,0.783-0.326c0.457,0,1.892,0,3.132-0.563
		c0.848-0.42,1.827-1.215,3.588-4.395c0.718-1.309,3.98-6.919,7.308-12.669c3.98-6.826,6.916-11.875,8.417-14.166
		C42.388,0.748,42.648,0,43.301,0c0.783,0,1.109,0.655,2.35,2.898l15.984,28.659c1.436,2.619,2.414,3.133,4.697,3.601
		c0.979,0.188,2.088,0.188,2.479,0.188s0.522,0.139,0.522,0.326c0,0.281-0.653,0.328-1.697,0.328c-3.131,0-6.85-0.141-7.634-0.141
		c-0.651,0-3.589,0.141-6.067,0.141c-1.174,0-1.762-0.094-1.762-0.328c0-0.233,0.196-0.326,0.652-0.326
		c0.718,0,1.893-0.047,2.479-0.234c0.718-0.233,0.849-0.607,0.849-0.935c0-0.608-0.783-2.058-1.762-3.881L41.865,6.358z"/>
</g>
</svg>
