<?xml version="1.0" encoding="utf-8"?>
<!-- Generator: Adobe Illustrator 16.0.0, SVG Export Plug-In . SVG Version: 6.00 Build 0)  -->
<!DOCTYPE svg PUBLIC "-//W3C//DTD SVG 1.1//EN" "http://www.w3.org/Graphics/SVG/1.1/DTD/svg11.dtd">
<svg version="1.1" id="Layer_1" xmlns="http://www.w3.org/2000/svg" xmlns:xlink="http://www.w3.org/1999/xlink" x="0px" y="0px"
	 width="17px" height="17px" viewBox="0 0 17 17" enable-background="new 0 0 17 17" xml:space="preserve">
<title>Page 1</title>
<desc>Created with Sketch.</desc>
<g id="Homepages">
	<g id="Navigation-1" transform="translate(-24.000000, -301.000000)">
		
			<g id="Page-1" transform="translate(32.500000, 309.500000) rotate(1.000000) translate(-32.500000, -309.500000) translate(25.000000, 302.000000)">
			<g id="Group-3" transform="translate(4.000000, 0.000000)">
				<path id="Fill-1" fill="none" stroke="#A4A4A4" d="M3.392,0C1.522,0,0,1.712,0,3.816s1.521,3.819,3.392,3.819
					s3.392-1.711,3.392-3.816C6.784,1.715,5.262,0,3.392,0"/>
			</g>
			<path id="Fill-4" fill="#A4A4A4" stroke="#A4A4A4" stroke-width="0.5" d="M14.686,15c-0.169,0-0.308-0.142-0.308-0.316
				c0-3.887-3.086-7.049-6.88-7.049c-3.794,0-6.88,3.163-6.88,7.049c0,0.174-0.139,0.317-0.308,0.316C0.139,15,0,14.858,0,14.685
				c0-2.054,0.78-3.983,2.197-5.434C3.616,7.802,5.499,7,7.5,7c2.001,0,3.888,0.799,5.303,2.252C14.217,10.704,15,12.634,15,14.685
				C14.994,14.858,14.855,15,14.686,15"/>
		</g>
	</g>
</g>
</svg>
