<?xml version="1.0" encoding="utf-8"?>
<!-- Generator: Adobe Illustrator 16.0.0, SVG Export Plug-In . SVG Version: 6.00 Build 0)  -->
<!DOCTYPE svg PUBLIC "-//W3C//DTD SVG 1.1//EN" "http://www.w3.org/Graphics/SVG/1.1/DTD/svg11.dtd">
<svg version="1.1" id="Layer_1" xmlns="http://www.w3.org/2000/svg" xmlns:xlink="http://www.w3.org/1999/xlink" x="0px" y="0px"
	 width="612px" height="792px" viewBox="0 0 612 792" enable-background="new 0 0 612 792" xml:space="preserve">
<path fill="#585858" d="M525.938,657.375c-9.563,0-15.938-3.188-22.313-9.563L408,552.188c-12.75-12.75-12.75-31.875,0-44.625
	s31.875-12.75,44.625,0l95.625,95.625c12.75,12.75,12.75,31.875,0,44.625C541.875,654.188,535.5,657.375,525.938,657.375z"/>
<path fill="#585858" d="M270.938,593.625c-124.313,0-223.125-98.813-223.125-223.125s98.813-223.125,223.125-223.125
	S494.063,246.188,494.063,370.5S395.25,593.625,270.938,593.625z M270.938,211.125c-89.25,0-159.375,70.125-159.375,159.375
	s70.125,159.375,159.375,159.375S430.313,459.75,430.313,370.5S360.188,211.125,270.938,211.125z"/>
</svg>
