<?xml version="1.0" encoding="utf-8"?>
<!-- Generator: Adobe Illustrator 22.0.1, SVG Export Plug-In . SVG Version: 6.00 Build 0)  -->
<svg version="1.1" id="Layer_1" xmlns="http://www.w3.org/2000/svg" xmlns:xlink="http://www.w3.org/1999/xlink" x="0px" y="0px"
	 viewBox="0 0 19.2 19.2" style="enable-background:new 0 0 19.2 19.2;" xml:space="preserve">
<style type="text/css">
	.st0{fill:#FFFFFF;}
</style>
<path class="st0" d="M16.5,17.8c-0.3,0-0.5-0.1-0.7-0.3l-3-3c-0.4-0.4-0.4-1,0-1.4s1-0.4,1.4,0l3,3c0.4,0.4,0.4,1,0,1.4
	C17,17.7,16.8,17.8,16.5,17.8z"/>
<path class="st0" d="M8.5,15.8c-3.9,0-7-3.1-7-7s3.1-7,7-7s7,3.1,7,7S12.4,15.8,8.5,15.8z M8.5,3.8c-2.8,0-5,2.2-5,5s2.2,5,5,5
	s5-2.2,5-5S11.3,3.8,8.5,3.8z"/>
</svg>
