<?xml version="1.0" encoding="utf-8"?>
<!-- Generator: Adobe Illustrator 16.0.0, SVG Export Plug-In . SVG Version: 6.00 Build 0)  -->
<!DOCTYPE svg PUBLIC "-//W3C//DTD SVG 1.1//EN" "http://www.w3.org/Graphics/SVG/1.1/DTD/svg11.dtd">
<svg version="1.1" id="Layer_1" xmlns="http://www.w3.org/2000/svg" xmlns:xlink="http://www.w3.org/1999/xlink" x="0px" y="0px"
	 width="612px" height="792px" viewBox="0 0 612 792" enable-background="new 0 0 612 792" xml:space="preserve">
<g>
	<path fill="#FFD457" d="M360.6,663H247.8v-47.974c-19.017-3.75-36.449-10.384-54.2-20.613l-38.8,38.8L72.387,550.8l42.695-42.695
		c-1.697-4.176-3.586-8.564-5.573-13.183c-5.812-13.504-11.799-27.416-15.122-40.722H39V341.4h55.797
		c6.803-20.098,13.647-37.296,20.289-53.902l-38.782-38.782l78.17-83.056l42.725,42.725c17.133-9.896,34.111-16.819,50.601-23.421
		V129h116.4v51.574c19.016,3.75,36.446,10.382,54.2,20.613l39.126-39.126l78.17,83.056l-38.777,38.779
		c1.697,4.179,3.587,8.57,5.576,13.191c5.81,13.5,11.795,27.411,15.118,40.713H573v112.8h-55.174
		c-3.749,19.016-10.382,36.446-20.612,54.201l38.799,38.799L453.6,626.013l-39.095-39.094c-4.179,1.697-8.569,3.587-13.19,5.575
		c-13.501,5.811-27.412,11.797-40.715,15.119V663z M277.8,633h52.8v-31.8c0-11.146,9.214-21.002,20.176-22.099
		c11.485-2.461,25.305-8.408,38.681-14.164c4.605-1.981,8.991-3.869,13.297-5.625c3.325-2.309,7.152-3.513,11.247-3.513
		c3.635,0,6.582,0.983,8.344,1.57c0.03,0.01,0.06,0.021,0.09,0.03h4.979l26.187,26.187l39.987-39.987l-21.793-21.793
		c-5.863-5.863-7.094-11.94-7.094-16.007c0-3.693,1.015-9.046,5.595-14.39c9.868-16.729,15.69-32.329,18.773-50.275
		c0.915-11.117,10.864-20.535,22.132-20.535H543v-52.8h-31.8c-11.146,0-21.001-9.215-22.099-20.175
		c-2.461-11.485-8.407-25.305-14.163-38.68c-1.974-4.586-3.854-8.955-5.604-13.244c-3.839-5.443-4.501-12.034-1.964-19.645
		c0.01-0.03,0.021-0.06,0.03-0.089v-4.979l26.503-26.504l-37.029-39.344l-21.468,21.467c-5.861,5.862-11.939,7.093-16.007,7.093
		c-3.693,0-9.046-1.015-14.39-5.595c-16.729-9.867-32.328-15.69-50.274-18.774c-11.117-0.915-20.535-10.864-20.535-22.131V159h-56.4
		v31.8c0,10.549-8.255,19.943-18.432,21.849c-16.882,6.757-32.901,13.27-48.922,22.742c-3.59,2.893-7.849,4.409-12.445,4.409
		c-3.634,0-6.583-0.982-8.344-1.569c-0.03-0.01-0.06-0.02-0.09-0.03h-4.98l-29.46-29.46l-37.029,39.344l22.11,22.11
		c8.54,8.54,9.342,20.15,2.405,29.266c-6.542,16.359-13.273,33.33-19.865,52.941c-1.656,10.436-11.202,18.999-21.947,18.999H69v52.8
		h31.8c18.579,0,21.704,13.822,22.138,20.354c2.484,11.452,8.4,25.199,14.128,38.508c1.973,4.584,3.851,8.949,5.601,13.236
		c3.838,5.443,4.501,12.033,1.964,19.645c-0.01,0.03-0.02,0.061-0.03,0.09v4.979L114.813,550.8l39.986,39.987l21.794-21.794
		c5.862-5.862,11.94-7.094,16.006-7.094c3.693,0,9.045,1.016,14.39,5.595c16.728,9.867,32.325,15.689,50.275,18.774
		c11.118,0.915,20.535,10.864,20.535,22.132V633z"/>
</g>
<path fill="#FFD457" d="M298.8,511.8c-28.382,0-54.843-10.829-74.506-30.493C204.629,461.643,193.8,435.183,193.8,406.8
	c0-54.953,50.047-105,105-105c29.537,0,58.233,12.695,78.73,34.829c18.465,19.94,28.019,45.691,26.269,70.739
	c-0.144,28.168-10.959,54.405-30.492,73.938C353.643,500.971,327.183,511.8,298.8,511.8z M298.8,331.8c-38.551,0-75,36.449-75,75
	c0,42.056,32.944,75,75,75c42.056,0,75-32.944,75-75l0.044-1.15c1.321-17.176-5.187-34.449-18.325-48.637
	C340.681,340.989,320.008,331.8,298.8,331.8z"/>
</svg>
