<?xml version="1.0" encoding="utf-8"?>
<!-- Generator: Adobe Illustrator 22.1.0, SVG Export Plug-In . SVG Version: 6.00 Build 0)  -->
<svg version="1.1" id="Layer_1" xmlns="http://www.w3.org/2000/svg" xmlns:xlink="http://www.w3.org/1999/xlink" x="0px" y="0px"
	 viewBox="0 0 17 16" style="enable-background:new 0 0 17 16;" xml:space="preserve">
<style type="text/css">
	.st0{fill:none;stroke:#979797;stroke-miterlimit:10;}
</style>
<g>
	<path class="st0" d="M7.3,15h2.3v-1.3c0-0.1,0.1-0.2,0.2-0.2c0.5-0.1,1.1-0.4,1.6-0.6c0.1-0.1,0.2,0,0.3,0l0.9,0.9l1.7-1.7
		l-0.9-0.9c-0.1-0.1-0.1-0.2,0-0.3c0.3-0.5,0.5-1,0.6-1.6c0-0.1,0.1-0.2,0.2-0.2h1.3V6.8h-1.3c-0.1,0-0.2-0.1-0.2-0.2
		c-0.1-0.5-0.4-1.1-0.6-1.6c-0.1-0.1,0-0.2,0-0.3l0.9-0.9l-1.6-1.7l-0.9,0.9c-0.1,0.1-0.2,0.1-0.3,0c-0.5-0.3-1-0.5-1.6-0.6
		c-0.1,0-0.2-0.1-0.2-0.2V1H7.3v1.3c0,0.1-0.1,0.2-0.2,0.2C6.6,2.7,6.1,2.9,5.6,3.2c-0.1,0.1-0.2,0-0.3,0l-1-1L2.7,3.9l0.9,0.9
		c0.1,0.1,0.1,0.2,0,0.3C3.4,5.6,3.2,6.1,3,6.7c0,0.1-0.1,0.2-0.2,0.2H1.5v2.3h1.3C2.9,9.2,3,9.2,3,9.4c0.1,0.5,0.4,1.1,0.6,1.6
		c0.1,0.1,0,0.2,0,0.3l-1,1l1.7,1.7l0.9-0.9c0.1-0.1,0.2-0.1,0.3,0c0.5,0.3,1,0.5,1.6,0.6c0.1,0,0.2,0.1,0.2,0.2L7.3,15z"/>
</g>
<path class="st0" d="M8.3,5.8C7,5.8,5.8,7,5.8,8.3c0,1.4,1.1,2.5,2.5,2.5c1.4,0,2.5-1.1,2.5-2.5C10.9,7,9.7,5.8,8.3,5.8"/>
</svg>
