<?xml version="1.0" encoding="utf-8" ?>
<svg xmlns="http://www.w3.org/2000/svg" xmlns:xlink="http://www.w3.org/1999/xlink" width="16" height="13">
	<defs>
		<clipPath id="clip_0">
			<rect x="-234" y="-578" width="375" height="812" clip-rule="evenodd"/>
		</clipPath>
	</defs>
	<g clip-path="url(#clip_0)">
		<path fill="rgb(255,255,255)" stroke="none" d="M14.3627 3.2293C14.3834 3.3742 14.3834 3.51911 14.3834 3.66401C14.3834 4.96815 14.0725 6.27229 13.5544 7.47293C12.0207 10.9506 8.82902 13 5.03627 13C3.25389 13 1.49223 12.4825 0 11.5303C0.248705 11.551 0.518135 11.5717 0.766839 11.5717C2.25907 11.5717 3.68912 11.0748 4.84974 10.164C3.46114 10.1433 2.21762 9.21178 1.78238 7.88694C1.98964 7.92834 2.19689 7.94904 2.40415 7.94904C2.6943 7.94904 2.98446 7.90764 3.27461 7.82484C1.74093 7.51433 0.601036 6.16879 0.642487 4.61624L0.642487 4.57484C1.09845 4.82325 1.59585 4.96815 2.13472 4.98885C1.20207 4.36783 0.663212 3.3535 0.663212 2.25637C0.663212 1.67675 0.80829 1.09713 1.09845 0.600318C2.7772 2.64968 5.24352 3.89172 7.87565 4.03662C7.81347 3.78822 7.79275 3.53981 7.79275 3.2914C7.79275 1.46975 9.26425 0 11.0881 0C11.9793 0 12.8497 0.372611 13.4715 1.03503C14.2176 0.890127 14.9223 0.621019 15.5648 0.248408C15.3161 0.993631 14.7979 1.65605 14.114 2.04936C14.7772 1.98726 15.399 1.80096 16 1.53185C15.5648 2.19427 15.0052 2.77389 14.3627 3.2293L14.3627 3.2293Z"/>
	</g>

</svg>