<?xml version="1.0" encoding="UTF-8" standalone="no"?>
<svg width="15px" height="15px" viewBox="0 0 15 15" version="1.1" xmlns="http://www.w3.org/2000/svg" xmlns:xlink="http://www.w3.org/1999/xlink">
    <!-- Generator: Sketch 50.2 (55047) - http://www.bohemiancoding.com/sketch -->
    <title>Page 1</title>
    <desc>Created with Sketch.</desc>
    <defs>
        <polygon id="path-1" points="0 0 15 0 15 15 0 15"></polygon>
    </defs>
    <g id="Homepages" stroke="none" stroke-width="1" fill="none" fill-rule="evenodd">
        <g id="Navigation-1" transform="translate(-25.000000, -357.000000)">
            <g id="Page-1" transform="translate(25.000000, 357.000000)">
                <mask id="mask-2" fill="white">
                    <use xlink:href="#path-1"></use>
                </mask>
                <g id="Clip-2"></g>
                <path d="M12.362725,0.652523917 C11.7809444,0.652523917 11.2618471,0.905703196 10.8971732,1.30309026 L10.8948879,1.30080643 L10.7270791,1.46817881 L13.5409777,4.28023063 L13.7130307,4.10796432 L13.7110718,4.10600674 C14.1057816,3.7418984 14.3571683,3.2247732 14.3571683,2.64565822 C14.3571683,1.54485037 13.4642558,0.652523917 12.362725,0.652523917 Z M3.73330523,10.8071011 C3.73591704,10.8084062 3.73689647,10.8113425 3.73950828,10.8129738 L11.4577329,3.0994886 L10.2762154,1.91874658 L2.15740446,10.032229 L3.73330523,10.8071011 Z M1.26938911,12.5708733 L2.43099154,13.7320396 L4.42902608,13.1725003 C4.42902608,13.1725003 3.58475854,11.4198211 3.58345264,11.4191685 L1.82896937,10.5741501 L1.26938911,12.5708733 Z M0.817546001,14.1835861 L1.72678231,13.929428 L1.07187099,13.2752728 L0.817546001,14.1835861 Z M13.090114,4.73079839 L11.9085966,3.55005637 L4.19069843,11.2632153 C4.19200434,11.2658254 4.1952691,11.2668042 4.196575,11.2694143 L4.9713031,12.8442808 L13.090114,4.73079839 Z M14.3238677,4.36897388 C14.3088498,4.40127382 14.2905671,4.4322687 14.2641226,4.45902218 L5.15347684,13.5633621 C5.11789093,13.6246994 5.06859302,13.6782063 4.99840063,13.7049598 L0.476051862,14.9708562 C0.466584051,14.9754239 0.455810335,14.9760764 0.445363096,14.979339 L0.430018713,14.9839067 C0.427406903,14.9848855 0.424468617,14.984233 0.422183283,14.9852117 C0.391494518,14.9933683 0.361132228,15.0002198 0.328811081,14.9998935 C0.29681641,15.0008723 0.267107073,14.9949996 0.236744784,14.9865168 C0.229888783,14.9845592 0.223685734,14.9858643 0.216829733,14.9835804 C0.214217924,14.9826016 0.212585542,14.9803178 0.209973733,14.979339 C0.180917348,14.9685724 0.156431631,14.9522593 0.131619437,14.9333361 C0.118886864,14.9242008 0.105501338,14.9160442 0.0947276226,14.9052776 C0.083953907,14.8945109 0.0757920012,14.8811342 0.0666506667,14.86841 C0.0477150452,14.8439403 0.0313912336,14.8188181 0.020617518,14.7901071 C0.019311613,14.787497 0.0173527556,14.7858657 0.0163733269,14.7832556 C0.0140879933,14.7767304 0.0153938982,14.7702051 0.0134350408,14.7633536 C0.00527313504,14.7333375 -0.000603437137,14.7033214 4.95153271e-05,14.671674 C4.95153271e-05,14.6390478 0.00657903997,14.6087054 0.0147409458,14.5780368 C0.0160468507,14.5754267 0.015067422,14.5728166 0.0160468507,14.5705328 L0.020617518,14.554546 C0.0242087565,14.5447581 0.024861709,14.5339915 0.0291059,14.5242036 L1.29583368,10.0048229 C1.32260473,9.93435037 1.37614683,9.8860636 1.43752437,9.84984852 L10.4087647,0.884169907 C10.4218238,0.869488119 10.4371682,0.857090164 10.4505537,0.842734638 L10.5481701,0.745182313 C10.5530672,0.740288383 10.5592703,0.738657073 10.5644939,0.734089406 C11.0359256,0.283847904 11.6686365,0 12.3728458,0 C13.8237061,0 15,1.17552184 15,2.62542998 C15,3.29785587 14.7404514,3.90502938 14.3238677,4.36897388 Z" id="Fill-1" fill="#A4A4A4" mask="url(#mask-2)"></path>
            </g>
        </g>
    </g>
</svg>